M48
;GenerationSoftware,Autodesk,EAGLE,9.5.2*%
;CreationDate,2020-01-01T11:41:55Z*%
FMAT,2
ICI,OFF
METRIC,TZ,000.000
T1C0.350
%
G90
M71
T1
X1524Y25908
X1524Y23927
X-7620Y11430
X-8534Y14478
X-12812Y18669
X-6541Y19154
X8429Y27922
X8992Y14021
X-457Y24841
X-5029Y20269
X914Y26670
X8687Y21793
X10668Y8382
X26975Y8382
X30328Y-20422
X-34595Y305
X-36424Y-1524
X18440Y-15545
X-11637Y-18344
X13195Y-17227
X23207Y29478
X3810Y30937
X-23927Y18136
X-4572Y37490
X-21031Y-16307
X17678Y26518
X-17831Y-16916
X-36881Y-2743
X-18288Y-32918
X27127Y-18745
X-11582Y29566
X15392Y31547
M30