G04 EAGLE Gerber RS-274X export*
G75*
%MOMM*%
%FSLAX34Y34*%
%LPD*%
%IN*%
%IPPOS*%
%AMOC8*
5,1,8,0,0,1.08239X$1,22.5*%
G01*
%ADD10C,0.254000*%


D10*
X400000Y-4909D02*
X400000Y4909D01*
X399759Y14724D01*
X399277Y24530D01*
X398555Y34322D01*
X397593Y44092D01*
X396391Y53836D01*
X394950Y63548D01*
X393272Y73221D01*
X391356Y82851D01*
X389205Y92430D01*
X386820Y101954D01*
X384201Y111416D01*
X381351Y120811D01*
X378271Y130134D01*
X374964Y139378D01*
X371430Y148538D01*
X367673Y157609D01*
X363695Y166584D01*
X359497Y175460D01*
X355083Y184229D01*
X350454Y192888D01*
X345615Y201431D01*
X340568Y209852D01*
X335315Y218146D01*
X329861Y226310D01*
X324207Y234337D01*
X318359Y242223D01*
X312318Y249963D01*
X306090Y257552D01*
X299677Y264986D01*
X293084Y272261D01*
X286314Y279372D01*
X279372Y286314D01*
X272261Y293084D01*
X264986Y299677D01*
X257552Y306090D01*
X249963Y312318D01*
X242223Y318359D01*
X234337Y324207D01*
X226310Y329861D01*
X218146Y335315D01*
X209852Y340568D01*
X201431Y345615D01*
X192888Y350454D01*
X184229Y355083D01*
X175460Y359497D01*
X166584Y363695D01*
X157609Y367673D01*
X148538Y371430D01*
X139378Y374964D01*
X130134Y378271D01*
X120811Y381351D01*
X111416Y384201D01*
X101954Y386820D01*
X92430Y389205D01*
X82851Y391356D01*
X73221Y393272D01*
X63548Y394950D01*
X53836Y396391D01*
X44092Y397593D01*
X34322Y398555D01*
X24530Y399277D01*
X14724Y399759D01*
X4909Y400000D01*
X-4909Y400000D01*
X-14724Y399759D01*
X-24530Y399277D01*
X-34322Y398555D01*
X-44092Y397593D01*
X-53836Y396391D01*
X-63548Y394950D01*
X-73221Y393272D01*
X-82851Y391356D01*
X-92430Y389205D01*
X-101954Y386820D01*
X-111416Y384201D01*
X-120811Y381351D01*
X-130134Y378271D01*
X-139378Y374964D01*
X-148538Y371430D01*
X-157609Y367673D01*
X-166584Y363695D01*
X-175460Y359497D01*
X-184229Y355083D01*
X-192888Y350454D01*
X-201431Y345615D01*
X-209852Y340568D01*
X-218146Y335315D01*
X-226310Y329861D01*
X-234337Y324207D01*
X-242223Y318359D01*
X-249963Y312318D01*
X-257552Y306090D01*
X-264986Y299677D01*
X-272261Y293084D01*
X-279372Y286314D01*
X-286314Y279372D01*
X-293084Y272261D01*
X-299677Y264986D01*
X-306090Y257552D01*
X-312318Y249963D01*
X-318359Y242223D01*
X-324207Y234337D01*
X-329861Y226310D01*
X-335315Y218146D01*
X-340568Y209852D01*
X-345615Y201431D01*
X-350454Y192888D01*
X-355083Y184229D01*
X-359497Y175460D01*
X-363695Y166584D01*
X-367673Y157609D01*
X-371430Y148538D01*
X-374964Y139378D01*
X-378271Y130134D01*
X-381351Y120811D01*
X-384201Y111416D01*
X-386820Y101954D01*
X-389205Y92430D01*
X-391356Y82851D01*
X-393272Y73221D01*
X-394950Y63548D01*
X-396391Y53836D01*
X-397593Y44092D01*
X-398555Y34322D01*
X-399277Y24530D01*
X-399759Y14724D01*
X-400000Y4909D01*
X-400000Y-4909D01*
X-399759Y-14724D01*
X-399277Y-24530D01*
X-398555Y-34322D01*
X-397593Y-44092D01*
X-396391Y-53836D01*
X-394950Y-63548D01*
X-393272Y-73221D01*
X-391356Y-82851D01*
X-389205Y-92430D01*
X-386820Y-101954D01*
X-384201Y-111416D01*
X-381351Y-120811D01*
X-378271Y-130134D01*
X-374964Y-139378D01*
X-371430Y-148538D01*
X-367673Y-157609D01*
X-363695Y-166584D01*
X-359497Y-175460D01*
X-355083Y-184229D01*
X-350454Y-192888D01*
X-345615Y-201431D01*
X-340568Y-209852D01*
X-335315Y-218146D01*
X-329861Y-226310D01*
X-324207Y-234337D01*
X-318359Y-242223D01*
X-312318Y-249963D01*
X-306090Y-257552D01*
X-299677Y-264986D01*
X-293084Y-272261D01*
X-286314Y-279372D01*
X-279372Y-286314D01*
X-272261Y-293084D01*
X-264986Y-299677D01*
X-257552Y-306090D01*
X-249963Y-312318D01*
X-242223Y-318359D01*
X-234337Y-324207D01*
X-226310Y-329861D01*
X-218146Y-335315D01*
X-209852Y-340568D01*
X-201431Y-345615D01*
X-192888Y-350454D01*
X-184229Y-355083D01*
X-175460Y-359497D01*
X-166584Y-363695D01*
X-157609Y-367673D01*
X-148538Y-371430D01*
X-139378Y-374964D01*
X-130134Y-378271D01*
X-120811Y-381351D01*
X-111416Y-384201D01*
X-101954Y-386820D01*
X-92430Y-389205D01*
X-82851Y-391356D01*
X-73221Y-393272D01*
X-63548Y-394950D01*
X-53836Y-396391D01*
X-44092Y-397593D01*
X-34322Y-398555D01*
X-24530Y-399277D01*
X-14724Y-399759D01*
X-4909Y-400000D01*
X4909Y-400000D01*
X14724Y-399759D01*
X24530Y-399277D01*
X34322Y-398555D01*
X44092Y-397593D01*
X53836Y-396391D01*
X63548Y-394950D01*
X73221Y-393272D01*
X82851Y-391356D01*
X92430Y-389205D01*
X101954Y-386820D01*
X111416Y-384201D01*
X120811Y-381351D01*
X130134Y-378271D01*
X139378Y-374964D01*
X148538Y-371430D01*
X157609Y-367673D01*
X166584Y-363695D01*
X175460Y-359497D01*
X184229Y-355083D01*
X192888Y-350454D01*
X201431Y-345615D01*
X209852Y-340568D01*
X218146Y-335315D01*
X226310Y-329861D01*
X234337Y-324207D01*
X242223Y-318359D01*
X249963Y-312318D01*
X257552Y-306090D01*
X264986Y-299677D01*
X272261Y-293084D01*
X279372Y-286314D01*
X286314Y-279372D01*
X293084Y-272261D01*
X299677Y-264986D01*
X306090Y-257552D01*
X312318Y-249963D01*
X318359Y-242223D01*
X324207Y-234337D01*
X329861Y-226310D01*
X335315Y-218146D01*
X340568Y-209852D01*
X345615Y-201431D01*
X350454Y-192888D01*
X355083Y-184229D01*
X359497Y-175460D01*
X363695Y-166584D01*
X367673Y-157609D01*
X371430Y-148538D01*
X374964Y-139378D01*
X378271Y-130134D01*
X381351Y-120811D01*
X384201Y-111416D01*
X386820Y-101954D01*
X389205Y-92430D01*
X391356Y-82851D01*
X393272Y-73221D01*
X394950Y-63548D01*
X396391Y-53836D01*
X397593Y-44092D01*
X398555Y-34322D01*
X399277Y-24530D01*
X399759Y-14724D01*
X400000Y-4909D01*
X66568Y338890D02*
X66490Y338618D01*
X66435Y338340D01*
X66405Y338058D01*
X66400Y337774D01*
X66419Y337492D01*
X66463Y337211D01*
X66531Y336936D01*
X66623Y336668D01*
X66738Y336409D01*
X66875Y336161D01*
X67033Y335925D01*
X67211Y335705D01*
X67407Y335500D01*
X67621Y335314D01*
X67850Y335147D01*
X68093Y335000D01*
X68348Y334876D01*
X68612Y334774D01*
X68708Y334741D01*
X68978Y334668D01*
X69252Y334619D01*
X69530Y334593D01*
X69810Y334593D01*
X70088Y334616D01*
X70363Y334663D01*
X70633Y334735D01*
X70895Y334829D01*
X71149Y334947D01*
X71391Y335085D01*
X71620Y335245D01*
X71834Y335423D01*
X72032Y335620D01*
X72213Y335833D01*
X72373Y336061D01*
X72514Y336303D01*
X72633Y336555D01*
X72729Y336817D01*
X74005Y340608D01*
X74032Y340710D01*
X74093Y341000D01*
X74129Y341294D01*
X74138Y341590D01*
X74122Y341886D01*
X74080Y342180D01*
X74012Y342468D01*
X73920Y342750D01*
X73803Y343022D01*
X73664Y343284D01*
X73501Y343532D01*
X73318Y343765D01*
X73116Y343981D01*
X72895Y344179D01*
X72658Y344357D01*
X72406Y344513D01*
X72141Y344647D01*
X71866Y344757D01*
X71717Y344812D01*
X71466Y344885D01*
X71210Y344936D01*
X70950Y344964D01*
X70688Y344969D01*
X70427Y344952D01*
X70169Y344912D01*
X69915Y344849D01*
X69667Y344765D01*
X69428Y344659D01*
X69199Y344533D01*
X68982Y344388D01*
X68778Y344224D01*
X68589Y344043D01*
X68417Y343846D01*
X68263Y343635D01*
X68127Y343411D01*
X68012Y343177D01*
X67917Y342933D01*
X67844Y342682D01*
X66568Y338890D01*
X72834Y367697D02*
X72786Y367403D01*
X72764Y367106D01*
X72768Y366808D01*
X72799Y366512D01*
X72854Y366220D01*
X72935Y365934D01*
X73041Y365655D01*
X73171Y365387D01*
X73323Y365132D01*
X73497Y364890D01*
X73691Y364665D01*
X73905Y364458D01*
X74136Y364269D01*
X74382Y364102D01*
X74641Y363957D01*
X74913Y363835D01*
X75194Y363737D01*
X75477Y363645D01*
X75767Y363578D01*
X76062Y363537D01*
X76359Y363521D01*
X76656Y363532D01*
X76952Y363568D01*
X77243Y363630D01*
X77528Y363717D01*
X77804Y363828D01*
X78069Y363963D01*
X78321Y364121D01*
X78559Y364300D01*
X78780Y364499D01*
X78983Y364717D01*
X79166Y364952D01*
X79328Y365201D01*
X79468Y365464D01*
X81382Y371151D01*
X81429Y371444D01*
X81451Y371741D01*
X81447Y372039D01*
X81417Y372335D01*
X81361Y372627D01*
X81280Y372914D01*
X81175Y373192D01*
X81045Y373460D01*
X80893Y373716D01*
X80719Y373957D01*
X80524Y374182D01*
X80311Y374390D01*
X80080Y374578D01*
X79834Y374745D01*
X79574Y374890D01*
X79303Y375012D01*
X79022Y375110D01*
X78738Y375202D01*
X78448Y375269D01*
X78154Y375311D01*
X77856Y375326D01*
X77559Y375316D01*
X77264Y375279D01*
X76973Y375218D01*
X76688Y375131D01*
X76412Y375019D01*
X76147Y374884D01*
X75894Y374726D01*
X75657Y374547D01*
X75435Y374348D01*
X75233Y374130D01*
X75049Y373896D01*
X74887Y373646D01*
X74747Y373383D01*
X72834Y367697D01*
X112630Y323389D02*
X112551Y323117D01*
X112497Y322838D01*
X112467Y322557D01*
X112461Y322273D01*
X112480Y321990D01*
X112524Y321710D01*
X112592Y321435D01*
X112684Y321167D01*
X112799Y320907D01*
X112936Y320659D01*
X113094Y320424D01*
X113272Y320203D01*
X113469Y319999D01*
X113683Y319813D01*
X113912Y319645D01*
X114154Y319499D01*
X114409Y319374D01*
X114674Y319272D01*
X114770Y319240D01*
X115039Y319167D01*
X115314Y319117D01*
X115592Y319092D01*
X115871Y319091D01*
X116149Y319114D01*
X116424Y319162D01*
X116694Y319233D01*
X116957Y319328D01*
X117210Y319445D01*
X117452Y319584D01*
X117682Y319743D01*
X117896Y319922D01*
X118094Y320119D01*
X118274Y320332D01*
X118435Y320560D01*
X118575Y320801D01*
X118694Y321054D01*
X118790Y321316D01*
X120066Y325107D01*
X120094Y325208D01*
X120155Y325498D01*
X120190Y325793D01*
X120200Y326089D01*
X120183Y326385D01*
X120141Y326678D01*
X120074Y326967D01*
X119982Y327248D01*
X119865Y327521D01*
X119725Y327782D01*
X119563Y328030D01*
X119380Y328263D01*
X119177Y328480D01*
X118956Y328677D01*
X118719Y328855D01*
X118467Y329012D01*
X118203Y329145D01*
X117928Y329256D01*
X117779Y329311D01*
X117528Y329383D01*
X117271Y329434D01*
X117011Y329462D01*
X116750Y329468D01*
X116489Y329450D01*
X116230Y329410D01*
X115976Y329348D01*
X115729Y329264D01*
X115490Y329158D01*
X115260Y329032D01*
X115043Y328886D01*
X114839Y328722D01*
X114651Y328541D01*
X114478Y328345D01*
X114324Y328134D01*
X114189Y327910D01*
X114073Y327675D01*
X113979Y327431D01*
X113906Y327180D01*
X112630Y323389D01*
X124582Y350282D02*
X124534Y349988D01*
X124512Y349691D01*
X124517Y349393D01*
X124547Y349097D01*
X124602Y348805D01*
X124683Y348518D01*
X124789Y348240D01*
X124919Y347972D01*
X125071Y347717D01*
X125245Y347475D01*
X125440Y347250D01*
X125653Y347042D01*
X125884Y346854D01*
X126130Y346687D01*
X126390Y346542D01*
X126661Y346420D01*
X126942Y346322D01*
X127225Y346230D01*
X127515Y346163D01*
X127810Y346122D01*
X128107Y346106D01*
X128405Y346116D01*
X128700Y346153D01*
X128991Y346215D01*
X129276Y346302D01*
X129552Y346413D01*
X129817Y346548D01*
X130069Y346706D01*
X130307Y346885D01*
X130528Y347084D01*
X130731Y347302D01*
X130914Y347536D01*
X131077Y347786D01*
X131216Y348049D01*
X133130Y353735D01*
X133178Y354029D01*
X133199Y354326D01*
X133195Y354624D01*
X133165Y354920D01*
X133109Y355212D01*
X133028Y355499D01*
X132923Y355777D01*
X132793Y356045D01*
X132641Y356300D01*
X132467Y356542D01*
X132272Y356767D01*
X132059Y356975D01*
X131828Y357163D01*
X131582Y357330D01*
X131322Y357475D01*
X131051Y357597D01*
X130770Y357695D01*
X130487Y357787D01*
X130197Y357854D01*
X129902Y357895D01*
X129605Y357911D01*
X129307Y357901D01*
X129012Y357864D01*
X128721Y357802D01*
X128436Y357715D01*
X128160Y357604D01*
X127895Y357469D01*
X127643Y357311D01*
X127405Y357132D01*
X127184Y356933D01*
X126981Y356715D01*
X126797Y356481D01*
X126635Y356231D01*
X126496Y355968D01*
X124582Y350282D01*
M02*
